Coordinates
version=1
nRows=8
nColumns=40
inDegrees=yes

Units are S.I. units (second, meters, Newtons, ...)
If the header above contains a line with 'inDegrees', this indicates whether rotational values are in degrees (yes) or radians (no).

endheader
time	pelvis_tilt	pelvis_list	pelvis_rotation	pelvis_tx	pelvis_ty	pelvis_tz	hip_flexion_r	hip_adduction_r	hip_rotation_r	knee_angle_r	knee_angle_r_beta	ankle_angle_r	subtalar_angle_r	mtp_angle_r	hip_flexion_l	hip_adduction_l	hip_rotation_l	knee_angle_l	knee_angle_l_beta	ankle_angle_l	subtalar_angle_l	mtp_angle_l	lumbar_extension	lumbar_bending	lumbar_rotation	arm_flex_r	arm_add_r	arm_rot_r	elbow_flex_r	pro_sup_r	wrist_flex_r	wrist_dev_r	arm_flex_l	arm_add_l	arm_rot_l	elbow_flex_l	pro_sup_l	wrist_flex_l	wrist_dev_l
      8.11000000	     27.93958046	      0.83657204	   -173.27763484	      0.38533900	      0.76889940	     -0.54934535	     86.13982741	    -22.10079251	     -3.51563942	     74.15327799	      1.29421885	     16.73635894	      0.00000000	      0.00000000	     86.10444139	     -2.17433247	     -1.04654910	     74.76074361	      1.30482113	     13.79655568	      0.00000000	      0.00000000	    -54.20933028	      8.75763359	     -0.53203385	     64.97517493	    -17.48294019	     30.81525581	     21.68444788	     89.04393079	      0.00000000	      0.00000000	     69.80302740	    -12.77310818	     60.30566833	     22.13397361	     85.62993847	      0.00000000	      0.00000000
      8.11500000	     27.94370412	      0.88008383	   -173.42377176	      0.38558903	      0.76891903	     -0.54955820	     86.13981396	    -21.88985664	     -3.49192409	     74.09761032	      1.29324727	     16.67587025	      0.00000000	      0.00000000	     86.11894726	     -2.27794062	     -0.95259021	     74.74426384	      1.30453350	     13.82410795	      0.00000000	      0.00000000	    -54.17054271	      8.68146746	     -0.42971116	     65.00702677	    -17.45229813	     30.91629805	     21.62152082	     89.05016137	      0.00000000	      0.00000000	     69.50059616	    -12.67218864	     58.84701062	     22.13912641	     85.79883907	      0.00000000	      0.00000000
      8.12000000	     27.83139008	      0.80192814	   -173.42012271	      0.38565973	      0.76921777	     -0.54929525	     86.06350605	    -21.94796381	     -3.43670341	     74.10631228	      1.29339915	     16.52022387	      0.00000000	      0.00000000	     85.94804896	     -2.17728006	     -0.97276042	     74.66671726	      1.30318006	     13.91233443	      0.00000000	      0.00000000	    -54.25251690	      8.65925777	     -0.45828221	     65.00256882	    -17.62562740	     31.38641281	     21.80009100	     89.05059942	      0.00000000	      0.00000000	     69.26790743	    -12.33436959	     57.32554987	     21.81298822	     85.50029480	      0.00000000	      0.00000000
      8.12500000	     27.84077297	      0.83148757	   -173.47810765	      0.38588025	      0.76911219	     -0.54939575	     86.08361915	    -21.83069725	     -3.38852430	     74.09462829	      1.29319522	     16.54366129	      0.00000000	      0.00000000	     85.99633153	     -2.26083434	     -0.96991063	     74.69394754	      1.30365532	     13.85055926	      0.00000000	      0.00000000	    -54.18714659	      8.63168687	     -0.42055958	     64.98394143	    -17.51787013	     31.14014613	     21.67699512	     89.04759959	      0.00000000	      0.00000000	     69.24580052	    -12.42662743	     57.51311045	     21.92477447	     85.78500224	      0.00000000	      0.00000000
      8.13000000	     27.89719172	      0.88697780	   -173.43767791	      0.38622618	      0.76892935	     -0.54925257	     86.13335129	    -21.83762524	     -3.40692666	     74.06813237	      1.29273278	     16.61984419	      0.00000000	      0.00000000	     86.11724685	     -2.23221031	     -0.89911479	     74.73571611	      1.30438431	     13.79596776	      0.00000000	      0.00000000	    -54.06288578	      8.70438209	     -0.43500531	     64.95523577	    -17.41632793	     30.92470685	     21.59429456	     89.05588290	      0.00000000	      0.00000000	     69.16491446	    -12.59067808	     57.55805352	     22.19114769	     85.82927343	      0.00000000	      0.00000000
      8.13500000	     27.86467424	      0.87685628	   -173.73505075	      0.38633923	      0.76893503	     -0.54984930	     86.12283209	    -21.45640539	     -3.31099470	     74.02298830	      1.29194487	     16.60585875	      0.00000000	      0.00000000	     86.08723603	     -2.53920118	     -0.93959797	     74.76265872	      1.30485455	     13.92068847	      0.00000000	      0.00000000	    -54.07228836	      8.45914803	     -0.22273294	     64.86058407	    -17.56299559	     31.12518761	     21.81784251	     89.05774970	      0.00000000	      0.00000000	     69.05056382	    -12.33938890	     56.80247366	     21.91937503	     85.76489399	      0.00000000	      0.00000000
      8.14000000	     27.86792778	      0.86288827	   -173.52784979	      0.38659182	      0.76879460	     -0.54917331	     86.17214237	    -21.73786057	     -3.33011932	     74.08623260	      1.29304869	     16.51291364	      0.00000000	      0.00000000	     86.13440558	     -2.29949894	     -0.93975955	     74.77735210	      1.30511100	     13.78347978	      0.00000000	      0.00000000	    -53.98184494	      8.63879346	     -0.38529127	     64.90833311	    -17.46916103	     31.15524882	     21.59113604	     89.05236860	      0.00000000	      0.00000000	     68.97870450	    -12.46614684	     56.93249965	     22.11591295	     85.97195136	      0.00000000	      0.00000000
      8.14500000	     27.90648076	      0.90882191	   -173.60516669	      0.38686508	      0.76852688	     -0.54928762	     86.23423127	    -21.60488057	     -3.30852986	     74.08496220	      1.29302652	     16.50891201	      0.00000000	      0.00000000	     86.23725992	     -2.38277866	     -0.89032689	     74.82359778	      1.30591814	     13.73260792	      0.00000000	      0.00000000	    -53.87900385	      8.60287731	     -0.31364843	     64.88874112	    -17.43830705	     31.17917041	     21.51716941	     89.04972980	      0.00000000	      0.00000000	     68.95691351	    -12.50593970	     57.12293926	     22.16561026	     85.96295395	      0.00000000	      0.00000000
